<svg width="24" height="24" viewBox="0 0 24 24" fill="none" xmlns="http://www.w3.org/2000/svg">
<path d="M12.0039 2C9.25433 2 6.99805 4.24847 6.99805 6.99805C6.99805 9.74763 9.25433 12.0039 12.0039 12.0039C14.7535 12.0039 17 9.74763 17 6.99805C17 4.24847 14.7535 2 12.0039 2V2ZM12.0039 4.00195C13.6726 4.00195 15 5.32935 15 6.99805C15 8.66675 13.6726 10.002 12.0039 10.002C10.3352 10.002 8.99805 8.66675 8.99805 6.99805C8.99805 5.32935 10.3352 4.00195 12.0039 4.00195V4.00195ZM8.00195 13C3 13 2 16 2 20C2 21 3 22 4 22H20C21 22 22 21 22 20C22 16 21 13 15.9961 13H8.00195ZM8.00195 15H15.9961C19 15 19.998 16.9802 19.998 19.998H4.00195C4 17 5 15 8.00195 15V15Z" fill="#A6A6A6"/>
</svg>
